<?xml version="1.0" standalone="no"?>
<!DOCTYPE svg PUBLIC "-//W3C//DTD SVG 20010904//EN"
 "http://www.w3.org/TR/2001/REC-SVG-20010904/DTD/svg10.dtd">
<svg version="1.0" xmlns="http://www.w3.org/2000/svg"
 width="840.000000pt" height="452.000000pt" viewBox="0 0 840.000000 452.000000"
 preserveAspectRatio="xMidYMid meet">

<g transform="translate(0.000000,452.000000) scale(0.100000,-0.100000)"
fill="#000000" stroke="none">
<path d="M4795 2743 c-37 -9 -45 -24 -45 -84 l0 -59 -40 0 c-39 0 -40 -1 -40
-35 0 -34 1 -35 39 -35 l38 0 5 -183 c5 -187 13 -224 52 -256 24 -20 86 -31
134 -25 40 6 42 8 42 40 0 34 -1 34 -45 34 -32 0 -51 6 -65 20 -18 18 -20 33
-20 195 l0 175 65 0 65 0 0 35 0 35 -65 0 -65 0 0 75 c0 80 -1 81 -55 68z"/>
<path d="M3765 2610 c-50 -8 -81 -24 -122 -63 l-33 -31 0 42 0 42 -46 0 -47 0
7 -52 c3 -29 6 -196 6 -370 l0 -318 45 0 45 0 0 141 0 141 35 -30 c31 -28 88
-52 122 -52 47 0 116 25 152 57 78 66 110 168 90 286 -24 143 -125 226 -254
207z m93 -97 c93 -67 97 -261 8 -342 -39 -37 -128 -41 -176 -9 -57 38 -71 78
-68 183 3 100 21 138 82 177 39 24 115 20 154 -9z"/>
<path d="M5212 2589 c-87 -43 -136 -139 -135 -265 1 -116 48 -194 143 -238 53
-24 180 -27 245 -4 34 11 39 17 37 38 -5 36 -15 42 -46 30 -15 -5 -59 -10 -97
-10 -115 0 -173 44 -192 148 l-6 32 189 0 190 0 0 43 c0 101 -56 204 -127 233
-50 22 -150 18 -201 -7z m165 -59 c39 -24 59 -54 68 -102 l7 -38 -145 0 -146
0 9 30 c31 109 127 159 207 110z"/>
<path d="M5842 2590 c-18 -11 -43 -37 -55 -58 l-22 -37 -3 53 -3 52 -40 0 -39
0 2 -262 3 -263 45 0 45 0 5 180 c5 170 6 182 29 214 24 34 74 61 111 61 17 0
20 6 20 40 0 38 -1 40 -32 40 -18 0 -48 -9 -66 -20z"/>
<path d="M2618 2301 c-3 -286 -4 -301 -24 -328 -12 -16 -40 -34 -65 -43 -24
-8 -45 -15 -47 -16 -1 0 1 -15 4 -32 6 -28 11 -32 38 -32 39 0 105 30 133 61
53 58 57 82 61 397 l4 292 -51 0 -50 0 -3 -299z"/>
<path d="M2900 2413 c0 -106 5 -205 11 -228 22 -79 115 -135 198 -120 48 9
107 43 129 74 l17 26 5 -45 c5 -44 5 -45 43 -45 20 0 37 3 37 8 0 4 0 122 0
262 l0 255 -45 0 -45 0 0 -172 c0 -195 -8 -224 -69 -265 -70 -47 -158 -15
-181 65 -5 20 -10 112 -10 205 l0 167 -45 0 -45 0 0 -187z"/>
<path d="M4103 2588 c2 -7 48 -122 102 -255 l96 -241 -16 -34 c-30 -58 -64
-97 -111 -124 -42 -25 -45 -29 -38 -58 9 -45 14 -47 61 -26 116 52 170 152
364 673 l28 77 -49 0 -49 0 -68 -205 c-62 -189 -82 -234 -83 -187 -1 9 -32
100 -69 202 l-69 185 -52 3 c-40 2 -51 0 -47 -10z"/>
</g>
</svg>
